<?xml version="1.0" encoding="UTF-8" standalone="no"?>
<!-- Created with Inkscape (http://www.inkscape.org/) -->

<svg
   xmlns:dc="http://purl.org/dc/elements/1.1/"
   xmlns:cc="http://creativecommons.org/ns#"
   xmlns:rdf="http://www.w3.org/1999/02/22-rdf-syntax-ns#"
   xmlns:svg="http://www.w3.org/2000/svg"
   xmlns="http://www.w3.org/2000/svg"
   xmlns:sodipodi="http://sodipodi.sourceforge.net/DTD/sodipodi-0.dtd"
   xmlns:inkscape="http://www.inkscape.org/namespaces/inkscape"
   width="48pt"
   height="48pt"
   viewBox="0 0 16.933334 16.933333"
   version="1.1"
   id="svg979"
   inkscape:version="0.92.4 (5da689c313, 2019-01-14)"
   sodipodi:docname="11 - Business Network.svg"
   inkscape:export-filename="E:\TR Design Studio Creative\Project Design\TR Creative Design\Icon Design\Project Hiring\Icon Icons\003 - Business And Finance\Send\2 - Solid\11 - Business Network.png"
   inkscape:export-xdpi="768"
   inkscape:export-ydpi="768">
  <defs
     id="defs973">
    <pattern
       y="0"
       x="0"
       height="6"
       width="6"
       patternUnits="userSpaceOnUse"
       id="EMFhbasepattern" />
  </defs>
  <sodipodi:namedview
     id="base"
     pagecolor="#ffffff"
     bordercolor="#666666"
     borderopacity="1.0"
     inkscape:pageopacity="0.0"
     inkscape:pageshadow="2"
     inkscape:zoom="8.546875"
     inkscape:cx="32"
     inkscape:cy="32"
     inkscape:document-units="pt"
     inkscape:current-layer="layer1"
     showgrid="false"
     units="pt"
     inkscape:window-width="1366"
     inkscape:window-height="716"
     inkscape:window-x="-8"
     inkscape:window-y="-8"
     inkscape:window-maximized="1"
     inkscape:snap-bbox="true"
     inkscape:bbox-nodes="true"
     inkscape:snap-nodes="false"
     showguides="false">
    <inkscape:grid
       type="xygrid"
       id="grid1526" />
    <sodipodi:guide
       position="0.97013909,15.963209"
       orientation="56.666615,0"
       id="guide1528"
       inkscape:locked="false" />
    <sodipodi:guide
       position="0.97013909,0.97016731"
       orientation="0,56.666667"
       id="guide1530"
       inkscape:locked="false" />
    <sodipodi:guide
       position="15.963195,0.97016731"
       orientation="-56.666615,0"
       id="guide1532"
       inkscape:locked="false" />
    <sodipodi:guide
       position="15.963195,15.963209"
       orientation="0,-56.666667"
       id="guide1534"
       inkscape:locked="false" />
  </sodipodi:namedview>
  <metadata
     id="metadata976">
    <rdf:RDF>
      <cc:Work
         rdf:about="">
        <dc:format>image/svg+xml</dc:format>
        <dc:type
           rdf:resource="http://purl.org/dc/dcmitype/StillImage" />
        <dc:title></dc:title>
      </cc:Work>
    </rdf:RDF>
  </metadata>
  <g
     inkscape:label="Layer 1"
     inkscape:groupmode="layer"
     id="layer1"
     transform="translate(0,-280.06668)">
    <path
       id="path1799"
       style="color:#000000;font-style:normal;font-variant:normal;font-weight:normal;font-stretch:normal;font-size:medium;line-height:normal;font-family:sans-serif;font-variant-ligatures:normal;font-variant-position:normal;font-variant-caps:normal;font-variant-numeric:normal;font-variant-alternates:normal;font-feature-settings:normal;text-indent:0;text-align:start;text-decoration:none;text-decoration-line:none;text-decoration-style:solid;text-decoration-color:#000000;letter-spacing:normal;word-spacing:normal;text-transform:none;writing-mode:lr-tb;direction:ltr;text-orientation:mixed;dominant-baseline:auto;baseline-shift:baseline;text-anchor:start;white-space:normal;shape-padding:0;clip-rule:nonzero;display:inline;overflow:visible;visibility:visible;isolation:auto;mix-blend-mode:normal;color-interpolation:sRGB;color-interpolation-filters:linearRGB;solid-color:#000000;solid-opacity:1;vector-effect:none;fill:#000000;fill-opacity:1;fill-rule:nonzero;stroke:none;stroke-width:0.529167;stroke-linecap:round;stroke-linejoin:round;stroke-miterlimit:4;stroke-dasharray:none;stroke-dashoffset:0;stroke-opacity:1;color-rendering:auto;image-rendering:auto;shape-rendering:auto;text-rendering:auto;enable-background:accumulate"
       d="m 13.459224,282.59427 c -1.386841,0 -2.503969,1.11434 -2.503972,2.50119 -4e-6,1.38684 1.117127,2.50466 2.503972,2.50466 1.386845,0 2.503976,-1.11782 2.503971,-2.50466 -5e-6,-1.38685 -1.117132,-2.50119 -2.503971,-2.50119 z m 0,0.2197 c 0.196742,7.7e-4 0.356043,0.16006 0.356811,0.35681 v 0.40158 h 0.401588 c 0.199202,-10e-4 0.361091,0.16041 0.360306,0.35961 -3.94e-4,0.19838 -0.16193,0.35867 -0.360306,0.3575 h -1.160687 v 0.42259 h 1.160687 c 0.198373,-0.001 0.359905,0.15913 0.360306,0.35751 v 1.1397 c 7.53e-4,0.19919 -0.161118,0.36075 -0.360306,0.3596 h -0.401588 v 0.4016 c -7.53e-4,0.19674 -0.160069,0.35603 -0.356811,0.35681 -0.197835,7.8e-4 -0.358838,-0.15897 -0.35961,-0.35681 v -0.4016 h -0.399487 c -0.198925,7.8e-4 -0.360383,-0.16068 -0.35961,-0.3596 3.94e-4,-0.19811 0.161501,-0.35829 0.35961,-0.35752 h 0.759097 0.401587 v -0.42258 h -1.160684 c -0.198917,7.6e-4 -0.360362,-0.16069 -0.35961,-0.3596 v -1.1376 c -7.52e-4,-0.19892 0.160688,-0.36037 0.35961,-0.35961 h 0.399487 v -0.40158 c 7.88e-4,-0.19784 0.161775,-0.35759 0.35961,-0.35681 z m -7.6336521,1.5 c -1.2372782,0.0483 -2.3985853,0.55633 -3.278462,1.39157 l 1.8463208,0.49463 c 0.566086,-0.65893 1.280825,-1.27665 2.1282712,-1.85892 -0.2335824,-0.0233 -0.4661585,-0.0363 -0.69613,-0.0273 z m 2.4067233,0.50443 c 0.4372821,0.92016 0.7429793,1.80552 0.9025213,2.65229 l 1.7476735,0.46806 c -0.397965,-1.34213 -1.3422194,-2.49108 -2.6501948,-3.12035 z m -1.3327931,0.12727 c -0.6810713,0.46969 -1.2507356,0.95832 -1.7245854,1.46362 l 1.2432403,0.33302 z m 0.6919332,0.1868 -0.4813451,1.79524 1.2432407,0.33302 c -0.157831,-0.67413 -0.40719,-1.38143 -0.7618956,-2.12826 z m -5.5844389,1.16837 c -0.3194132,0.41882 -0.5735066,0.89537 -0.7535002,1.41676 l 1.9127848,0.51352 c 0.1824183,-0.49105 0.4338039,-0.96362 0.750703,-1.41815 z m 2.6522927,0.71082 c -0.3444475,0.45519 -0.610157,0.92381 -0.7968766,1.40626 l 1.9652578,0.52752 0.4050843,-1.5119 z m 2.2653988,0.60798 -0.4050844,1.5119 1.9652578,0.52752 c 0.079919,-0.51169 0.08486,-1.05045 0.013984,-1.61754 z m 2.3164718,0.62057 c 0.04725,0.55292 0.02846,1.0884 -0.059475,1.60566 l 1.8148373,0.48764 c 0.105493,-0.54267 0.122687,-1.08418 0.05526,-1.60775 z m 3.1070533,0.0762 c -0.189401,0 -0.330224,0.14081 -0.330224,0.33022 0,0.18939 0.140823,0.33092 0.330224,0.33092 h 2.755838 c 0.189403,0 0.330225,-0.14153 0.330225,-0.33092 0,-0.18941 -0.140822,-0.33022 -0.330225,-0.33022 z m -11.2815176,0.093 c -0.10561502,0.54069 -0.12398696,1.08015 -0.058067,1.60215 l 1.8085412,0.48414 c -0.02594,-0.54077 0.022596,-1.06674 0.1420245,-1.57836 z m 2.5851288,0.69403 c -0.1167843,0.50869 -0.1532128,1.03726 -0.104938,1.58815 l 1.6917027,0.45337 0.4036859,-1.50771 z m 8.1212938,0.59049 c -0.01178,0.20634 -0.03613,0.41371 -0.07066,0.62127 l -0.0042,0.0398 h 2.756202 c 0.277358,0 0.411017,-0.18076 0.411017,-0.33582 0,-0.21281 -0.181743,-0.32536 -0.40542,-0.32536 -0.920176,3e-5 -1.766342,7e-5 -2.686944,10e-5 z m -5.4389168,0.12943 -0.4036859,1.507 1.6903044,0.45266 c 0.3172794,-0.45227 0.5504391,-0.92764 0.7038267,-1.42585 z m 2.6837769,0.71991 c -0.1524127,0.50203 -0.3741812,0.981 -0.666746,1.43564 l 1.7098939,0.45826 c 0.317603,-0.41816 0.571829,-0.89279 0.750702,-1.41256 z m -7.841441,0.25537 c 0.3995255,1.36096 1.3606733,2.52385 2.6928721,3.15043 -0.4975168,-0.92699 -0.8225053,-1.82468 -0.9682867,-2.68868 z m 10.7805829,0.2729 c -0.1894,0 -0.330225,0.14152 -0.330225,0.33092 0,0.18941 0.140825,0.33022 0.330225,0.33022 h 2.755138 c 0.189403,0 0.330924,-0.14081 0.330924,-0.33022 0,-0.1894 -0.141521,-0.33092 -0.330924,-0.33092 z m -8.2913036,0.39319 c 0.1577185,0.70998 0.452092,1.45676 0.8857308,2.2437 l 0.5016339,-1.8722 z m 2.0799965,0.5569 -0.5009339,1.86941 c 0.7678268,-0.4641 1.395519,-0.96346 1.8869001,-1.4986 z m 6.4596751,0.42748 c -0.1894,0 -0.333022,0.14152 -0.333022,0.33092 0,0.18941 0.143622,0.33023 0.333022,0.33023 h 2.755838 c 0.189399,0 0.330225,-0.14082 0.330225,-0.33023 0,-0.1894 -0.140826,-0.33092 -0.330225,-0.33092 z m -4.3076151,0.14831 c -0.5538727,0.67007 -1.2763247,1.28141 -2.1611539,1.83234 1.4245867,0.0852 2.7890992,-0.44431 3.78779,-1.39716 z m 3.8822421,1.21387 c -0.189402,0 -0.330925,0.14081 -0.330925,0.33022 0,0.1894 0.141523,0.33092 0.330925,0.33092 h 2.755138 c 0.189399,0 0.330224,-0.14153 0.330224,-0.33092 0,-0.18941 -0.140825,-0.33022 -0.330224,-0.33022 z"
       inkscape:connector-curvature="0"
       sodipodi:nodetypes="sssssccccccccccccccccccccccccccccccccccccccccccccccccccccccccccccccccccccssssssscccccccccccccccccccccccccccccccsssssssccccccccsssssssccccsssssss" />
  </g>
</svg>
