<?xml version="1.0" ?><svg data-name="Layer 2" id="Layer_2" viewBox="0 0 32 32" xmlns="http://www.w3.org/2000/svg"><title/><path d="M23.3048,20.1768a.4519.4519,0,0,0-.205-.2442.5544.5544,0,0,0-.0993-.0606c-.0081-.0033-.0133-.01-.0216-.0133a.5622.5622,0,0,0-.0793-.0119.3894.3894,0,0,0-.2289,0,.5416.5416,0,0,0-.0787.0117c-.0081.003-.0134.01-.0214.0132a.4484.4484,0,0,0-.2407.2.5468.5468,0,0,0-.0638.1044c-.0031.0076-.01.0124-.0122.02L20.3566,25.41a.5658.5658,0,1,0,1.0633.3869l.5036-1.3838h1.7244l.5036,1.3838a.5658.5658,0,0,0,1.0633-.3869L23.3171,20.197C23.3144,20.1892,23.3079,20.1844,23.3048,20.1768Zm-.9694,3.1049.45-1.2372.45,1.2372Z"/><path d="M11.0192,12.0574a.5662.5662,0,0,0-.0376-1.1318,3.4013,3.4013,0,0,1-.8169-.113,3.7129,3.7129,0,0,0,1.001-2.3141h.5879a.5659.5659,0,0,0,0-1.1318H9.78V6.4273a.5659.5659,0,1,0-1.1318,0v.9394H6.675a.5659.5659,0,0,0,0,1.1318h3.3592A2.562,2.562,0,0,1,9.079,10.28a2.2611,2.2611,0,0,1-.72-1.0332.5659.5659,0,1,0-1.07.3691,3.3993,3.3993,0,0,0,.7364,1.2272,4.9592,4.9592,0,0,1-.6237.1754.5658.5658,0,0,0,.1149,1.12.5238.5238,0,0,0,.1161-.0122,5.3735,5.3735,0,0,0,1.4317-.521,4.3642,4.3642,0,0,0,1.8581.4536C10.9557,12.0585,10.9883,12.0585,11.0192,12.0574Z"/><path d="M14.1475,15H4.2813a1.0682,1.0682,0,0,1-1.0674-1.0674V4.0664A1.068,1.068,0,0,1,4.2813,3h9.8662a1.0678,1.0678,0,0,1,1.0664,1.0664v9.8662A1.068,1.068,0,0,1,14.1475,15ZM4.2813,4l-.0674,9.9326L14.1475,14l.0664-9.9336L14.1475,4Z"/><path d="M27.7188,29H17.8525a1.068,1.068,0,0,1-1.0664-1.0674V18.0664A1.0678,1.0678,0,0,1,17.8525,17h9.8663a1.0679,1.0679,0,0,1,1.0673,1.0664v9.8662A1.0682,1.0682,0,0,1,27.7188,29ZM17.8525,18l-.0664,9.9326L27.7188,28l.0673-9.9336L27.7188,18Z"/><path d="M14.2559,22.9375l-1.5713-1.6641a.5.5,0,0,0-.7266.6875l.7744.82H10.6318a.9186.9186,0,0,1-.9179-.917V17.1377a.5.5,0,0,0-1,0v4.7266a1.92,1.92,0,0,0,1.9179,1.917h2.1317l-.8123.8955a.5.5,0,1,0,.74.6718l1.5713-1.7314A.5.5,0,0,0,14.2559,22.9375Z"/><path d="M17.9229,7.7l1.5713,1.6641a.5.5,0,0,0,.7265-.6875l-.7744-.82h2.1006a.9186.9186,0,0,1,.918.917V13.5a.5.5,0,0,0,1,0V8.7734a1.92,1.92,0,0,0-1.918-1.917H19.4152l.8124-.8955a.5.5,0,1,0-.74-.6718L17.916,7.0205A.5.5,0,0,0,17.9229,7.7Z"/></svg>